<?xml version="1.0" encoding="UTF-8"?>
<svg xmlns="http://www.w3.org/2000/svg" width="200" height="200" viewBox="0 0 200 200">
  <title>AI4OS logo</title>
  <desc>Vectorized version of the supplied AI4OS logo.</desc>
  <g fill-rule="evenodd">
    <path fill="#040305" d="M 171.00 136.00 L 169.00 138.00 L 168.00 138.00 L 166.00 140.00 L 165.00 140.00 L 165.00 141.00 L 164.00 142.00 L 164.00 143.00 L 163.00 144.00 L 163.00 148.00 L 162.00 149.00 L 162.00 151.00 L 163.00 152.00 L 163.00 156.00 L 164.00 157.00 L 164.00 159.00 L 166.00 161.00 L 167.00 161.00 L 168.00 162.00 L 168.00 163.00 L 170.00 163.00 L 171.00 164.00 L 181.00 164.00 L 182.00 163.00 L 184.00 163.00 L 185.00 162.00 L 185.00 161.00 L 186.00 160.00 L 185.00 159.00 L 185.00 158.00 L 183.00 158.00 L 181.00 160.00 L 178.00 160.00 L 177.00 161.00 L 175.00 161.00 L 174.00 160.00 L 172.00 160.00 L 167.00 155.00 L 167.00 146.00 L 168.00 145.00 L 168.00 144.00 L 170.00 142.00 L 171.00 142.00 L 171.00 141.00 L 172.00 140.00 L 180.00 140.00 L 182.00 142.00 L 185.00 142.00 L 185.00 138.00 L 184.00 138.00 L 183.00 137.00 L 182.00 137.00 L 181.00 136.00 Z M 143.00 136.00 L 141.00 138.00 L 140.00 138.00 L 139.00 139.00 L 139.00 140.00 L 138.00 141.00 L 138.00 146.00 L 139.00 147.00 L 139.00 148.00 L 141.00 150.00 L 142.00 150.00 L 143.00 151.00 L 144.00 151.00 L 145.00 152.00 L 148.00 152.00 L 149.00 153.00 L 151.00 153.00 L 153.00 155.00 L 153.00 156.00 L 154.00 157.00 L 153.00 158.00 L 153.00 159.00 L 152.00 160.00 L 151.00 160.00 L 150.00 161.00 L 145.00 161.00 L 144.00 160.00 L 143.00 160.00 L 142.00 159.00 L 141.00 159.00 L 140.00 158.00 L 140.00 157.00 L 137.00 157.00 L 136.00 158.00 L 136.00 159.00 L 140.00 163.00 L 141.00 163.00 L 142.00 164.00 L 152.00 164.00 L 153.00 163.00 L 154.00 163.00 L 157.00 160.00 L 157.00 153.00 L 154.00 150.00 L 153.00 150.00 L 152.00 149.00 L 149.00 149.00 L 148.00 148.00 L 147.00 148.00 L 146.00 147.00 L 144.00 147.00 L 142.00 145.00 L 142.00 142.00 L 144.00 140.00 L 145.00 140.00 L 146.00 139.00 L 149.00 139.00 L 150.00 140.00 L 151.00 140.00 L 154.00 143.00 L 155.00 143.00 L 156.00 142.00 L 157.00 142.00 L 157.00 140.00 L 155.00 138.00 L 154.00 138.00 L 152.00 136.00 Z M 114.00 136.00 L 113.00 137.00 L 112.00 137.00 L 111.00 138.00 L 110.00 138.00 L 107.00 141.00 L 107.00 142.00 L 106.00 143.00 L 106.00 144.00 L 105.00 145.00 L 105.00 146.00 L 104.00 147.00 L 104.00 153.00 L 105.00 154.00 L 105.00 155.00 L 106.00 156.00 L 106.00 158.00 L 111.00 163.00 L 112.00 163.00 L 113.00 164.00 L 123.00 164.00 L 124.00 163.00 L 125.00 163.00 L 126.00 162.00 L 127.00 162.00 L 129.00 160.00 L 129.00 159.00 L 131.00 157.00 L 131.00 155.00 L 132.00 154.00 L 132.00 147.00 L 131.00 146.00 L 131.00 143.00 L 128.00 140.00 L 128.00 139.00 L 127.00 139.00 L 126.00 138.00 L 125.00 138.00 L 123.00 136.00 Z M 115.00 140.00 L 122.00 140.00 L 127.00 145.00 L 127.00 147.00 L 128.00 148.00 L 128.00 153.00 L 127.00 154.00 L 127.00 155.00 L 125.00 157.00 L 125.00 158.00 L 124.00 159.00 L 123.00 159.00 L 122.00 160.00 L 120.00 160.00 L 119.00 161.00 L 117.00 161.00 L 116.00 160.00 L 114.00 160.00 L 110.00 156.00 L 110.00 155.00 L 109.00 154.00 L 109.00 146.00 L 110.00 145.00 L 110.00 144.00 L 112.00 142.00 L 113.00 142.00 Z M 83.00 136.00 L 82.00 137.00 L 81.00 137.00 L 80.00 138.00 L 79.00 138.00 L 77.00 140.00 L 77.00 141.00 L 75.00 143.00 L 75.00 145.00 L 74.00 146.00 L 74.00 154.00 L 75.00 155.00 L 75.00 157.00 L 76.00 158.00 L 76.00 159.00 L 80.00 163.00 L 81.00 163.00 L 82.00 164.00 L 93.00 164.00 L 94.00 163.00 L 95.00 163.00 L 98.00 160.00 L 98.00 158.00 L 97.00 157.00 L 95.00 157.00 L 95.00 158.00 L 94.00 159.00 L 93.00 159.00 L 92.00 160.00 L 90.00 160.00 L 89.00 161.00 L 87.00 161.00 L 86.00 160.00 L 83.00 160.00 L 81.00 158.00 L 81.00 157.00 L 80.00 157.00 L 79.00 156.00 L 79.00 154.00 L 78.00 153.00 L 78.00 152.00 L 79.00 151.00 L 98.00 151.00 L 99.00 150.00 L 99.00 144.00 L 97.00 142.00 L 97.00 141.00 L 96.00 140.00 L 96.00 139.00 L 95.00 139.00 L 94.00 138.00 L 93.00 138.00 L 91.00 136.00 Z M 78.00 146.00 L 79.00 145.00 L 79.00 144.00 L 83.00 140.00 L 90.00 140.00 L 95.00 145.00 L 95.00 146.00 L 94.00 147.00 L 79.00 147.00 Z M 154.00 35.00 L 154.00 36.00 L 153.00 37.00 L 153.00 38.00 L 150.00 41.00 L 150.00 42.00 L 149.00 43.00 L 149.00 44.00 L 146.00 47.00 L 146.00 48.00 L 145.00 49.00 L 145.00 50.00 L 142.00 53.00 L 142.00 54.00 L 140.00 56.00 L 140.00 57.00 L 139.00 58.00 L 139.00 59.00 L 136.00 62.00 L 136.00 63.00 L 134.00 65.00 L 134.00 66.00 L 132.00 68.00 L 132.00 69.00 L 129.00 72.00 L 129.00 73.00 L 128.00 74.00 L 128.00 75.00 L 127.00 76.00 L 127.00 77.00 L 126.00 78.00 L 125.00 78.00 L 125.00 79.00 L 124.00 80.00 L 124.00 81.00 L 122.00 83.00 L 122.00 84.00 L 121.00 85.00 L 121.00 87.00 L 155.00 87.00 L 156.00 88.00 L 156.00 106.00 L 159.00 106.00 L 159.00 88.00 L 160.00 87.00 L 171.00 87.00 L 171.00 84.00 L 160.00 84.00 L 159.00 83.00 L 159.00 35.00 Z M 155.00 39.00 L 156.00 40.00 L 156.00 83.00 L 155.00 84.00 L 127.00 84.00 L 126.00 83.00 L 127.00 82.00 L 127.00 81.00 L 128.00 80.00 L 128.00 79.00 L 131.00 76.00 L 131.00 75.00 L 132.00 74.00 L 132.00 73.00 L 135.00 70.00 L 135.00 69.00 L 136.00 68.00 L 136.00 67.00 L 139.00 64.00 L 139.00 63.00 L 140.00 62.00 L 140.00 61.00 L 142.00 59.00 L 142.00 58.00 L 145.00 55.00 L 145.00 54.00 L 147.00 52.00 L 147.00 51.00 L 149.00 49.00 L 149.00 48.00 L 152.00 45.00 L 152.00 44.00 L 153.00 43.00 L 153.00 42.00 L 154.00 41.00 L 154.00 40.00 Z M 100.00 35.00 L 100.00 106.00 L 109.00 106.00 L 109.00 35.00 Z M 55.00 35.00 L 54.00 36.00 L 54.00 38.00 L 53.00 39.00 L 53.00 41.00 L 52.00 42.00 L 52.00 44.00 L 51.00 45.00 L 51.00 46.00 L 50.00 47.00 L 50.00 49.00 L 49.00 50.00 L 49.00 52.00 L 47.00 54.00 L 47.00 56.00 L 46.00 57.00 L 46.00 59.00 L 45.00 60.00 L 45.00 62.00 L 44.00 63.00 L 44.00 64.00 L 43.00 65.00 L 43.00 67.00 L 42.00 68.00 L 42.00 70.00 L 40.00 72.00 L 40.00 74.00 L 39.00 75.00 L 39.00 78.00 L 38.00 79.00 L 38.00 81.00 L 36.00 83.00 L 36.00 85.00 L 35.00 86.00 L 35.00 88.00 L 34.00 89.00 L 34.00 91.00 L 33.00 92.00 L 33.00 93.00 L 32.00 94.00 L 32.00 96.00 L 31.00 97.00 L 31.00 99.00 L 30.00 100.00 L 30.00 101.00 L 29.00 102.00 L 29.00 103.00 L 28.00 104.00 L 28.00 106.00 L 38.00 106.00 L 38.00 104.00 L 39.00 103.00 L 39.00 101.00 L 40.00 100.00 L 40.00 98.00 L 41.00 97.00 L 41.00 96.00 L 42.00 95.00 L 42.00 93.00 L 43.00 92.00 L 43.00 90.00 L 45.00 88.00 L 74.00 88.00 L 75.00 89.00 L 75.00 90.00 L 76.00 91.00 L 76.00 92.00 L 77.00 93.00 L 77.00 95.00 L 78.00 96.00 L 78.00 99.00 L 79.00 100.00 L 79.00 102.00 L 81.00 104.00 L 81.00 106.00 L 91.00 106.00 L 90.00 105.00 L 90.00 103.00 L 89.00 102.00 L 89.00 100.00 L 88.00 99.00 L 88.00 97.00 L 86.00 95.00 L 86.00 93.00 L 85.00 92.00 L 85.00 90.00 L 84.00 89.00 L 84.00 86.00 L 82.00 84.00 L 82.00 82.00 L 81.00 81.00 L 81.00 79.00 L 79.00 77.00 L 79.00 75.00 L 78.00 74.00 L 78.00 71.00 L 77.00 70.00 L 77.00 68.00 L 75.00 66.00 L 75.00 64.00 L 74.00 63.00 L 74.00 61.00 L 73.00 60.00 L 73.00 59.00 L 72.00 58.00 L 72.00 56.00 L 71.00 55.00 L 71.00 53.00 L 70.00 52.00 L 70.00 50.00 L 68.00 48.00 L 68.00 46.00 L 67.00 45.00 L 67.00 43.00 L 66.00 42.00 L 66.00 41.00 L 65.00 40.00 L 65.00 38.00 L 64.00 37.00 L 64.00 35.00 Z M 59.00 49.00 L 60.00 49.00 L 61.00 50.00 L 61.00 52.00 L 62.00 53.00 L 62.00 54.00 L 63.00 55.00 L 63.00 57.00 L 64.00 58.00 L 64.00 60.00 L 65.00 61.00 L 65.00 63.00 L 66.00 64.00 L 66.00 65.00 L 67.00 66.00 L 67.00 68.00 L 68.00 69.00 L 68.00 71.00 L 69.00 72.00 L 69.00 73.00 L 70.00 74.00 L 70.00 76.00 L 71.00 77.00 L 71.00 79.00 L 70.00 80.00 L 48.00 80.00 L 47.00 79.00 L 48.00 78.00 L 48.00 77.00 L 49.00 76.00 L 49.00 73.00 L 50.00 72.00 L 50.00 71.00 L 51.00 70.00 L 51.00 69.00 L 52.00 68.00 L 52.00 65.00 L 53.00 64.00 L 53.00 62.00 L 54.00 61.00 L 54.00 60.00 L 55.00 59.00 L 55.00 58.00 L 56.00 57.00 L 56.00 54.00 L 57.00 53.00 L 57.00 51.00 Z "/>
    <path fill="#00828D" d="M 63.00 142.00 L 59.00 138.00 L 58.00 138.00 L 57.00 137.00 L 55.00 137.00 L 54.00 136.00 L 48.00 136.00 L 47.00 137.00 L 45.00 137.00 L 43.00 139.00 L 42.00 139.00 L 41.00 140.00 L 40.00 140.00 L 40.00 141.00 L 39.00 142.00 L 39.00 144.00 L 38.00 145.00 L 38.00 146.00 L 37.00 147.00 L 37.00 152.00 L 36.00 153.00 L 36.00 155.00 L 32.00 159.00 L 31.00 159.00 L 30.00 160.00 L 28.00 160.00 L 28.00 164.00 L 31.00 164.00 L 32.00 163.00 L 34.00 163.00 L 37.00 160.00 L 38.00 160.00 L 38.00 159.00 L 39.00 158.00 L 39.00 157.00 L 40.00 156.00 L 40.00 155.00 L 41.00 154.00 L 41.00 148.00 L 42.00 147.00 L 42.00 146.00 L 46.00 142.00 L 47.00 142.00 L 48.00 141.00 L 49.00 141.00 L 50.00 140.00 L 53.00 140.00 L 54.00 141.00 L 55.00 141.00 L 60.00 146.00 L 60.00 147.00 L 61.00 148.00 L 61.00 153.00 L 60.00 154.00 L 60.00 155.00 L 55.00 160.00 L 50.00 160.00 L 49.00 161.00 L 49.00 163.00 L 50.00 164.00 L 55.00 164.00 L 56.00 163.00 L 58.00 163.00 L 62.00 159.00 L 63.00 159.00 L 63.00 157.00 L 64.00 156.00 L 64.00 153.00 L 65.00 152.00 L 65.00 148.00 L 64.00 147.00 L 64.00 144.00 L 63.00 143.00 Z M 19.00 139.00 L 19.00 141.00 L 20.00 142.00 L 22.00 142.00 L 23.00 141.00 L 25.00 141.00 L 26.00 140.00 L 28.00 140.00 L 29.00 141.00 L 31.00 141.00 L 32.00 142.00 L 34.00 142.00 L 35.00 141.00 L 35.00 138.00 L 34.00 138.00 L 33.00 137.00 L 31.00 137.00 L 30.00 136.00 L 24.00 136.00 L 23.00 137.00 L 22.00 136.00 Z "/>
    <path fill="#FF5C80" d="M 15.00 142.00 L 15.00 143.00 L 14.00 144.00 L 14.00 145.00 L 13.00 146.00 L 13.00 154.00 L 14.00 155.00 L 14.00 157.00 L 15.00 158.00 L 15.00 159.00 L 16.00 160.00 L 17.00 160.00 L 20.00 163.00 L 21.00 163.00 L 22.00 164.00 L 26.00 164.00 L 26.00 160.00 L 25.00 160.00 L 24.00 159.00 L 22.00 159.00 L 20.00 157.00 L 20.00 156.00 L 18.00 154.00 L 18.00 152.00 L 17.00 151.00 L 17.00 149.00 L 18.00 148.00 L 18.00 146.00 L 19.00 145.00 L 19.00 143.00 L 18.00 142.00 Z "/>
  </g>
</svg>
